<svg xmlns="http://www.w3.org/2000/svg"  viewBox="0 0 128 128" width="64px" height="64px"><path fill="#fff" d="M4,4h49c6.9,0,13.3,3.5,16.9,9.3L79.1,28c1,1.7,0.6,3.9-1.1,4.9l-4.8,3.2l12.6,26.5L105,69l11,5.8 c4.9,2.6,8,7.7,8,13.3V105c0,2.8-2.2,5-5,5H7c-1.7,0-3-1.3-3-3V4z"/><circle cx="90" cy="110" r="14" fill="#fff"/><path fill="#71c2ff" d="M102.1,64.4c1.3,2-0.2,4.6-2.5,4.6L75,69c-5.5,0-10-4.5-10-10V34c0-1.7,1.3-3,3-3h11.3c1,0,2,0.5,2.5,1.4 L102.1,64.4z"/><path fill="#444b54" d="M14,113H4c-1.7,0-3-1.3-3-3s1.3-3,3-3h10c1.7,0,3,1.3,3,3S15.7,113,14,113z"/><path fill="#444b54" d="M117.4,72.1l-5.4-2.8c-0.4-0.2-0.8-0.3-1.3-0.3l-1.1,0c-2.6,0-3.7,3.3-1.6,4.9l0,0c0.1,0.1,0.2,0.2,0.4,0.2 l6.2,3.3c3.9,2.1,6.4,6.2,6.4,10.6V105c0,1.1-0.9,2-2,2h-12.3c-1.4-7.9-8.4-14-16.7-14s-15.3,6.1-16.7,14l-39.1,0 c-1.6,0-3.1,1.2-3.2,2.8c-0.1,1.7,1.3,3.2,3,3.2h39.3c1.4,7.9,8.4,14,16.7,14s15.3-6.1,16.7-14H119c4.4,0,8-3.6,8-8V88.1 C127,81.4,123.3,75.2,117.4,72.1z M90,121c-6.1,0-11-4.9-11-11s4.9-11,11-11s11,4.9,11,11S96.1,121,90,121z"/><path fill="#444b54" d="M72.4,11.7C68.2,5,60.9,1,53,1L4.2,1C2.5,1,1.1,2.2,1,3.8C0.9,5.6,2.3,7,4,7h49c5.8,0,11.3,3,14.4,7.9 L74,25.4c0.5,0.9,1.5,1.4,2.5,1.4l0,0c2.4,0,3.8-2.6,2.5-4.6L72.4,11.7z"/></svg>