<?xml version="1.0" encoding="utf-8"?>
<!-- Generator: Adobe Illustrator 24.0.1, SVG Export Plug-In . SVG Version: 6.00 Build 0)  -->
<svg version="1.1" id="Isolation_Mode" xmlns="http://www.w3.org/2000/svg" xmlns:xlink="http://www.w3.org/1999/xlink" x="0px"
	 y="0px" viewBox="0 0 4975 4975" style="enable-background:new 0 0 4975 4975;" xml:space="preserve">
<style type="text/css">
	.st0{fill:#FFC40C;}
	.st1{fill:none;}
	.st2{font-family:'AquireBold';}
	.st3{font-size:261.9991px;}
</style>
<g>
	<g>
		<g>
			<path class="st0" d="M1918.73,1305.11l247.59,374.55c18.2,24.52,52.82,29.65,77.34,11.45c24.52-18.2,29.65-52.82,11.45-77.34
				l-247.59-374.55c-18.19-24.52-52.82-29.65-77.34-11.45C1905.66,1245.97,1900.53,1280.59,1918.73,1305.11z"/>
		</g>
		<g>
			<path class="st0" d="M2089.01,1305.11l247.59,374.55c18.19,24.52,52.82,29.65,77.34,11.45c24.52-18.19,29.65-52.82,11.45-77.34
				l-247.59-374.55c-18.2-24.52-52.82-29.65-77.34-11.45C2075.94,1245.97,2070.81,1280.59,2089.01,1305.11z"/>
		</g>
		<g>
			<path class="st0" d="M2259.29,1305.11l247.59,374.55c18.2,24.52,52.82,29.65,77.34,11.45c24.52-18.19,29.65-52.82,11.45-77.34
				l-247.59-374.55c-18.2-24.52-52.82-29.65-77.34-11.45C2246.22,1245.96,2241.09,1280.59,2259.29,1305.11z"/>
		</g>
		<g>
			<path class="st0" d="M2429.56,1305.11l247.59,374.55c18.2,24.52,52.82,29.65,77.34,11.45c24.52-18.19,29.65-52.82,11.46-77.34
				l-247.59-374.55c-18.19-24.52-52.82-29.65-77.34-11.45S2411.37,1280.59,2429.56,1305.11z"/>
		</g>
		<g>
			<path class="st0" d="M2595.17,1305.11l157.61,240.84c18.2,24.52,52.82,29.65,77.34,11.45c24.52-18.19,29.65-52.82,11.45-77.34
				l-157.61-240.84c-18.2-24.52-52.82-29.65-77.34-11.45C2582.1,1245.97,2576.97,1280.59,2595.17,1305.11z"/>
		</g>
		<g>
			<path class="st0" d="M2757.41,1302.1l59.9,85.86c18.2,24.52,52.82,29.65,77.34,11.45c24.52-18.19,29.65-52.82,11.45-77.34
				l-59.9-85.86c-18.2-24.52-52.82-29.65-77.34-11.45C2744.34,1242.95,2739.21,1277.58,2757.41,1302.1z"/>
		</g>
		<path d="M1917.19,1125.19l-66.06-77.18c-11.48-13.12-27.78-19.49-43.94-18.82c-0.84-0.04-1.69-0.06-2.54-0.06h-352.03
			c-30.53,0-55.29,24.75-55.29,55.29c0,30.53,24.75,55.29,55.29,55.29h331.45l49.9,58.3c20.11,22.98,55.03,25.31,78.01,5.2
			C1934.96,1183.09,1937.29,1148.17,1917.19,1125.19z"/>
		<g>
			
				<ellipse transform="matrix(0.7071 -0.7071 0.7071 0.7071 -597.9734 2176.9436)" cx="2328.82" cy="1810.29" rx="88.47" ry="88.47"/>
		</g>
		<g>
			
				<ellipse transform="matrix(0.7071 -0.7071 0.7071 0.7071 -508.6529 2392.5825)" cx="2633.78" cy="1810.29" rx="88.47" ry="88.47"/>
		</g>
	</g>
	<rect x="1896.05" y="2050.78" class="st1" width="736.12" height="192.13"/>
	<text transform="matrix(1 0 0 1 1896.0508 2223.8721)" class="st2 st3">SHOP</text>
	<text transform="matrix(1 0 0 1 2657.2734 2227.5596)" class="st0 st2 st3">HIT</text>
</g>
</svg>
